<svg xmlns="http://www.w3.org/2000/svg" xmlns:xlink="http://www.w3.org/1999/xlink" width="14px" height="14px">
    <path fill-rule="evenodd" fill="rgb(164, 176, 176)" d="M11.667,-0.000 L2.333,-0.000 C1.050,-0.000 -0.000,1.050 -0.000,2.333 L-0.000,11.666 C-0.000,12.950 1.050,14.000 2.333,14.000 L11.667,14.000 C12.950,14.000 14.000,12.950 14.000,11.666 L14.000,2.333 C14.000,1.050 12.950,-0.000 11.667,-0.000 L11.667,-0.000 ZM11.900,4.141 L6.067,10.616 C5.950,10.733 5.717,10.733 5.600,10.616 L2.100,7.000 C2.042,6.941 1.983,6.825 1.983,6.766 C1.983,6.708 2.042,6.591 2.100,6.533 L2.683,6.008 C2.742,5.950 2.858,5.891 2.917,5.891 C2.975,5.891 3.092,5.950 3.150,6.008 L5.600,7.816 C5.717,7.933 5.950,7.933 6.067,7.816 L10.850,3.033 C10.967,2.916 11.200,2.916 11.317,3.033 L11.900,3.616 C12.017,3.791 12.017,4.024 11.900,4.141 L11.900,4.141 Z"/>
</svg>