<svg xmlns="http://www.w3.org/2000/svg" xmlns:xlink="http://www.w3.org/1999/xlink" width="45.5px" height="45.5px">
    <path fill-rule="evenodd" stroke="rgb(255, 255, 255)" stroke-width="1px" stroke-linecap="butt" stroke-linejoin="miter" fill="none" d="M22.500,0.500 C34.650,0.500 44.500,10.350 44.500,22.500 C44.500,34.650 34.650,44.500 22.500,44.500 C10.350,44.500 0.500,34.650 0.500,22.500 C0.500,10.350 10.350,0.500 22.500,0.500 Z"/>
    <path fill-rule="evenodd" fill="rgb(255, 255, 255)" d="M25.359,25.997 C25.046,26.298 23.321,27.501 22.851,29.157 C20.969,28.104 17.206,25.546 15.325,21.332 C16.893,20.731 17.990,19.376 18.147,19.075 C18.147,19.075 15.795,15.164 11.876,13.057 C11.876,13.057 9.681,14.561 9.524,16.819 C9.524,16.819 8.740,20.731 16.109,28.104 C22.380,34.272 25.516,34.724 27.554,34.423 C27.868,34.423 28.181,34.272 28.495,34.272 C30.376,33.670 31.474,32.016 31.474,32.016 C29.592,28.404 25.359,25.997 25.359,25.997 L25.359,25.997 ZM28.181,20.279 C28.025,20.279 28.181,20.279 28.181,20.279 C28.025,20.279 28.025,20.279 28.181,20.279 C28.025,20.279 28.025,20.279 28.181,20.279 C27.868,20.731 28.495,21.031 28.808,20.580 C29.436,19.075 28.965,17.420 27.868,16.367 C26.770,15.313 24.889,14.712 23.478,15.464 C23.008,15.615 23.478,16.216 23.791,16.066 C23.948,16.066 23.948,16.066 24.105,15.916 C24.418,15.916 24.575,15.765 24.889,15.765 C25.830,15.765 26.613,16.216 27.397,16.819 C28.025,17.420 28.495,18.323 28.495,19.226 C28.495,19.527 28.495,19.828 28.338,19.978 C28.181,20.129 28.181,20.129 28.181,20.279 L28.181,20.279 ZM30.376,13.658 C30.376,13.508 30.376,13.508 30.376,13.658 C28.338,11.703 25.673,10.499 22.851,10.499 C21.596,10.499 20.342,10.650 19.245,11.251 C18.774,11.402 19.088,12.003 19.558,11.853 L19.715,11.853 C20.029,11.702 20.185,11.702 20.342,11.552 C21.126,11.402 21.910,11.251 22.694,11.251 C25.359,11.251 27.868,12.305 29.592,14.110 C31.474,15.915 32.571,18.173 32.571,20.730 C32.571,21.482 32.414,22.235 32.258,22.988 C32.258,23.288 32.101,23.439 32.101,23.589 L32.101,23.740 C31.944,24.191 32.571,24.492 32.728,24.040 C33.198,22.988 33.512,21.633 33.512,20.429 C33.669,18.022 32.415,15.615 30.376,13.658 L30.376,13.658 Z"/>
</svg>