<svg xmlns="http://www.w3.org/2000/svg" xmlns:xlink="http://www.w3.org/1999/xlink" width="36.5px" height="36.5px">
    <path fill-rule="evenodd" stroke="rgb(40, 184, 255)" stroke-width="1px" stroke-linecap="butt" stroke-linejoin="miter" fill="none" d="M18.000,0.500 C27.665,0.500 35.500,8.335 35.500,18.000 C35.500,27.665 27.665,35.500 18.000,35.500 C8.335,35.500 0.500,27.665 0.500,18.000 C0.500,8.335 8.335,0.500 18.000,0.500 Z"/>
    <path fill-rule="evenodd" fill="rgb(40, 184, 255)" d="M22.426,8.948 L13.574,8.948 C12.352,8.948 11.362,9.963 11.362,11.213 L11.362,24.787 C11.362,26.039 12.353,27.052 13.574,27.052 L22.426,27.052 C23.648,27.052 24.638,26.037 24.638,24.787 L24.638,11.213 C24.638,9.961 23.647,8.948 22.426,8.948 L22.426,8.948 ZM15.788,10.647 C15.788,10.334 16.035,10.081 16.340,10.081 L19.659,10.081 C19.965,10.081 20.212,10.334 20.212,10.647 C20.212,10.960 19.965,11.213 19.659,11.213 L16.340,11.213 C16.035,11.213 15.788,10.960 15.788,10.647 L15.788,10.647 ZM18.000,25.919 C17.389,25.919 16.893,25.409 16.893,24.785 C16.893,24.159 17.389,23.652 18.000,23.652 C18.611,23.652 19.107,24.159 19.107,24.785 C19.107,25.409 18.611,25.919 18.000,25.919 L18.000,25.919 ZM23.531,22.307 C23.531,22.425 23.438,22.522 23.320,22.522 L12.680,22.522 C12.564,22.522 12.469,22.427 12.469,22.307 L12.469,12.560 C12.469,12.442 12.562,12.344 12.680,12.344 L23.322,12.344 C23.438,12.344 23.533,12.440 23.533,12.560 L23.533,22.307 L23.531,22.307 Z"/>
</svg>