<svg xmlns="http://www.w3.org/2000/svg" xmlns:xlink="http://www.w3.org/1999/xlink" width="41px" height="36px"><path fill-rule="evenodd" fill="rgb(32, 176, 159)" d="M39.572,21.023 L25.230,34.974 C24.649,35.539 23.520,35.999 22.681,35.999 L18.806,35.999 C17.150,35.999 15.806,34.692 15.806,33.085 L15.806,29.315 C15.806,28.511 16.280,27.399 16.860,26.835 L31.198,12.887 C31.783,12.318 32.729,12.322 33.314,12.891 L39.563,18.968 C40.148,19.537 40.148,20.462 39.572,21.023 ZM18.445,28.380 C18.284,28.537 18.047,29.093 18.047,29.319 L18.047,33.085 C18.047,33.489 18.387,33.819 18.802,33.819 L22.676,33.819 C22.917,33.819 23.475,33.593 23.641,33.432 L33.510,23.837 L28.314,18.781 L18.445,28.380 ZM32.256,14.946 L29.899,17.235 L35.095,22.291 L37.452,20.002 L32.256,14.946 ZM5.223,7.705 C5.223,7.105 5.718,6.614 6.348,6.614 L25.038,6.614 C25.658,6.614 26.163,7.097 26.163,7.705 C26.163,8.304 25.667,8.795 25.038,8.795 L6.348,8.795 C5.727,8.795 5.223,8.313 5.223,7.705 ZM19.052,17.526 L6.343,17.526 C5.723,17.526 5.218,17.043 5.218,16.436 C5.218,16.145 5.339,15.866 5.549,15.662 C5.758,15.458 6.044,15.345 6.343,15.345 L19.052,15.345 C19.672,15.345 20.177,15.827 20.177,16.436 C20.177,16.727 20.056,17.005 19.846,17.209 C19.636,17.413 19.351,17.526 19.052,17.526 ZM34.032,11.037 C33.416,11.037 32.912,10.550 32.912,9.946 L32.912,3.748 C32.912,2.888 32.180,2.180 31.283,2.180 L3.875,2.180 C2.973,2.180 2.245,2.888 2.245,3.761 L2.245,30.431 C2.245,31.304 2.968,32.012 3.857,32.012 L12.369,32.012 C12.990,32.012 13.490,32.498 13.490,33.106 C13.490,33.710 12.990,34.196 12.369,34.196 L3.857,34.196 C1.723,34.196 -0.000,32.511 -0.000,30.431 L-0.000,3.765 C-0.000,1.685 1.732,-0.001 3.870,-0.001 L31.283,-0.001 C33.416,-0.001 35.153,1.680 35.153,3.748 L35.153,9.946 C35.153,10.546 34.653,11.037 34.032,11.037 ZM31.193,32.012 L31.287,32.012 C32.189,32.012 32.912,31.308 32.912,30.436 C32.912,29.836 33.412,29.345 34.032,29.345 C34.653,29.345 35.153,29.831 35.157,30.436 C35.157,32.511 33.430,34.192 31.287,34.192 L31.193,34.192 C30.577,34.192 30.073,33.706 30.073,33.102 C30.073,32.498 30.573,32.012 31.193,32.012 Z"/></svg>