<svg xmlns="http://www.w3.org/2000/svg" xmlns:xlink="http://www.w3.org/1999/xlink" width="41px" height="34px"><path fill-rule="evenodd" fill="rgb(32, 176, 159)" d="M35.942,33.999 L5.058,33.999 C2.273,33.999 -0.000,31.706 -0.000,28.877 L-0.000,5.122 C-0.000,2.302 2.264,-0.001 5.058,-0.001 L35.942,-0.001 C38.727,-0.001 41.000,2.292 41.000,5.122 L41.000,28.877 C40.991,31.697 38.727,33.999 35.942,33.999 ZM39.174,17.928 L34.874,17.928 L34.874,24.244 L39.174,24.244 L39.174,17.928 ZM34.874,16.079 L39.174,16.079 L39.174,10.679 L34.874,10.679 L34.874,16.079 ZM35.942,32.159 C37.722,32.159 39.174,30.689 39.174,28.886 L39.174,26.094 L34.874,26.094 L34.874,32.159 L35.942,32.159 ZM6.116,17.928 L1.826,17.928 L1.826,24.244 L6.116,24.244 L6.116,17.928 ZM1.826,16.079 L6.116,16.079 L6.116,10.679 L1.826,10.679 L1.826,16.079 ZM5.058,32.159 L6.116,32.159 L6.116,26.094 L1.826,26.094 L1.826,28.886 C1.826,30.689 3.277,32.159 5.058,32.159 ZM5.058,1.849 L5.058,1.858 C3.277,1.858 1.826,3.328 1.826,5.132 L1.826,8.830 L6.116,8.830 L6.116,1.849 L5.058,1.849 ZM33.048,1.849 L7.942,1.849 L7.942,32.159 L33.048,32.159 L33.048,1.849 ZM35.942,1.849 L34.874,1.849 L34.874,8.830 L39.174,8.830 L39.174,5.122 C39.174,3.319 37.722,1.849 35.942,1.849 ZM16.917,23.495 C16.771,23.578 16.615,23.624 16.460,23.624 C16.305,23.624 16.141,23.587 16.004,23.504 C15.721,23.338 15.547,23.033 15.547,22.700 L15.547,11.308 C15.547,10.975 15.721,10.670 16.004,10.503 C16.287,10.337 16.634,10.337 16.917,10.503 L26.658,16.200 C26.941,16.366 27.114,16.671 27.114,17.004 C27.114,17.337 26.941,17.642 26.658,17.808 L16.917,23.495 ZM17.373,12.908 L17.373,21.100 L24.375,17.004 L17.373,12.908 Z"/></svg>