<svg xmlns="http://www.w3.org/2000/svg" xmlns:xlink="http://www.w3.org/1999/xlink" width="42px" height="36px"><path fill-rule="evenodd" fill="rgb(153, 153, 153)" d="M16.051,15.191 C15.400,15.191 14.873,14.691 14.873,14.075 C14.873,13.457 15.400,12.958 16.051,12.958 L19.597,12.958 L19.597,12.293 L15.223,8.150 C14.762,7.712 14.762,7.005 15.223,6.568 C15.685,6.131 16.430,6.131 16.891,6.568 L20.776,10.251 L24.659,6.572 C25.121,6.135 25.866,6.135 26.328,6.572 C26.789,7.010 26.789,7.716 26.328,8.154 L21.953,12.294 L21.953,12.958 L25.491,12.958 C26.142,12.958 26.669,13.457 26.669,14.075 C26.673,14.687 26.142,15.191 25.487,15.191 L21.953,15.191 L21.953,17.429 L25.491,17.429 C26.142,17.429 26.669,17.933 26.669,18.546 C26.673,19.163 26.142,19.663 25.487,19.663 L21.953,19.663 L21.953,23.022 C21.949,23.638 21.426,24.142 20.775,24.142 C20.125,24.142 19.597,23.638 19.597,23.025 L19.597,19.663 L16.051,19.663 C15.400,19.663 14.873,19.163 14.873,18.546 C14.873,17.929 15.400,17.429 16.051,17.429 L19.597,17.429 L19.597,15.191 L16.051,15.191 ZM35.018,29.200 L22.925,29.200 L13.291,35.230 C12.352,35.804 11.586,35.999 10.977,35.999 C10.466,35.999 10.066,35.863 9.766,35.691 C9.033,35.277 8.596,34.468 8.596,33.531 L8.596,29.200 L6.981,29.200 C3.134,29.200 -0.000,26.048 -0.000,22.182 L-0.000,7.021 C-0.000,3.151 3.134,0.003 6.981,0.003 L8.724,0.003 C9.271,0.003 9.724,0.452 9.724,1.011 C9.724,1.569 9.280,2.018 8.724,2.018 L6.981,2.018 C4.234,2.018 1.993,4.268 1.993,7.029 L1.993,22.190 C1.993,24.955 4.230,27.200 6.981,27.200 L10.598,27.200 L10.598,33.538 C10.598,33.613 10.606,33.863 10.750,33.945 C10.907,34.035 11.397,34.043 12.249,33.523 L22.357,27.200 L35.027,27.200 C37.774,27.200 40.014,24.951 40.014,22.190 L40.014,7.025 C40.014,4.260 37.778,2.015 35.027,2.015 L15.203,2.015 C14.655,2.015 14.202,1.565 14.202,1.007 C14.202,0.448 14.647,-0.001 15.203,-0.001 L35.018,-0.001 C38.865,-0.001 42.000,3.151 42.000,7.017 L42.000,22.182 C42.000,26.052 38.865,29.200 35.018,29.200 Z"/></svg>