<svg xmlns="http://www.w3.org/2000/svg" xmlns:xlink="http://www.w3.org/1999/xlink" width="39px" height="34px"><path fill-rule="evenodd" fill="rgb(153, 153, 153)" d="M37.174,26.573 L20.825,26.573 L20.825,30.971 L30.080,30.971 C30.906,30.971 31.576,31.638 31.576,32.459 C31.576,33.282 30.906,33.948 30.080,33.948 L8.598,33.948 C7.771,33.948 7.102,33.282 7.102,32.459 C7.102,31.638 7.771,30.971 8.598,30.971 L17.852,30.971 L17.852,26.554 L1.503,26.554 C0.682,26.554 0.017,25.891 0.017,25.074 L0.017,1.528 C0.017,1.136 0.173,0.760 0.452,0.482 C0.731,0.205 1.109,0.050 1.503,0.050 L37.174,0.050 C37.572,0.050 37.953,0.208 38.232,0.489 C38.512,0.771 38.666,1.153 38.661,1.548 L38.661,25.094 C38.661,25.910 37.995,26.573 37.174,26.573 ZM35.767,3.027 L2.910,3.027 L2.910,23.595 L35.767,23.595 L35.767,3.027 ZM9.430,12.749 C9.977,12.749 10.421,13.191 10.421,13.735 L10.421,18.606 C10.421,18.867 10.316,19.119 10.131,19.304 C9.945,19.488 9.693,19.592 9.430,19.592 C9.167,19.592 8.915,19.488 8.729,19.304 C8.543,19.119 8.439,18.867 8.439,18.606 L8.439,13.735 C8.439,13.191 8.883,12.749 9.430,12.749 ZM16.049,10.403 C16.596,10.403 17.040,10.844 17.040,11.388 L17.040,18.606 C17.040,18.867 16.935,19.119 16.750,19.304 C16.564,19.488 16.312,19.592 16.049,19.592 C15.510,19.592 15.069,19.163 15.058,18.626 L15.058,11.388 C15.058,10.844 15.502,10.403 16.049,10.403 ZM22.629,7.030 C23.176,7.030 23.619,7.472 23.619,8.016 L23.619,18.606 C23.619,18.867 23.515,19.119 23.329,19.304 C23.143,19.488 22.891,19.592 22.629,19.592 C22.089,19.592 21.648,19.163 21.638,18.626 L21.638,8.016 C21.638,7.472 22.081,7.030 22.629,7.030 ZM29.247,10.403 C29.795,10.403 30.238,10.844 30.238,11.388 L30.238,18.606 C30.238,18.867 30.134,19.119 29.948,19.304 C29.762,19.488 29.510,19.592 29.247,19.592 C28.708,19.592 28.267,19.163 28.257,18.626 L28.257,11.388 C28.257,10.844 28.700,10.403 29.247,10.403 Z"/></svg>