<svg xmlns="http://www.w3.org/2000/svg" xmlns:xlink="http://www.w3.org/1999/xlink" width="40px" height="50px"><path fill-rule="evenodd" fill="rgb(255, 255, 255)" d="M38.294,50.000 L1.707,50.000 C0.744,49.980 -0.020,49.161 0.000,48.175 C0.020,47.216 0.772,46.444 1.707,46.424 L38.294,46.424 C39.256,46.445 40.020,47.262 40.000,48.249 C39.980,49.208 39.228,49.980 38.294,50.000 ZM35.245,27.634 C35.141,27.805 35.003,28.020 34.824,28.243 L34.803,28.269 L24.627,40.694 C23.556,42.045 22.069,42.789 20.438,42.789 C18.828,42.789 17.301,42.026 16.246,40.693 L6.080,28.278 C5.864,28.017 5.716,27.775 5.625,27.627 C3.541,24.675 2.439,21.217 2.439,17.620 C2.439,15.219 2.924,12.890 3.880,10.698 C4.797,8.595 6.107,6.710 7.773,5.096 C11.164,1.809 15.662,-0.001 20.437,-0.001 C25.212,-0.001 29.709,1.809 33.099,5.097 C34.764,6.711 36.074,8.596 36.991,10.699 C37.947,12.891 38.432,15.220 38.434,17.621 C38.433,19.435 38.148,21.238 37.590,22.960 C37.050,24.633 36.259,26.210 35.245,27.634 ZM34.168,11.996 C33.417,10.275 32.343,8.731 30.974,7.403 C28.161,4.676 24.419,3.173 20.437,3.173 C16.455,3.173 12.712,4.676 9.897,7.403 C8.528,8.730 7.454,10.274 6.704,11.995 C5.927,13.776 5.533,15.669 5.533,17.620 C5.533,20.558 6.441,23.388 8.158,25.804 L8.191,25.850 L8.243,25.935 C8.304,26.035 8.365,26.135 8.436,26.222 L8.444,26.231 L18.633,38.674 L18.642,38.685 C19.107,39.276 19.762,39.616 20.438,39.616 C21.132,39.616 21.752,39.294 22.231,38.685 L22.250,38.662 L32.441,26.220 C32.516,26.124 32.582,26.018 32.642,25.917 L32.677,25.860 L32.716,25.805 C33.555,24.636 34.210,23.339 34.654,21.960 C35.108,20.561 35.340,19.096 35.341,17.621 C35.339,15.671 34.945,13.778 34.168,11.996 ZM20.104,26.267 C16.525,26.267 13.613,23.279 13.613,19.606 C13.613,15.934 16.525,12.946 20.104,12.946 C23.683,12.946 26.595,15.934 26.595,19.606 C26.595,23.279 23.683,26.267 20.104,26.267 ZM20.104,16.406 C18.384,16.406 16.985,17.842 16.985,19.606 C16.985,21.371 18.384,22.807 20.104,22.807 C21.824,22.807 23.223,21.370 23.223,19.606 C23.223,17.842 21.824,16.406 20.104,16.406 Z"/></svg>