<svg xmlns="http://www.w3.org/2000/svg" xmlns:xlink="http://www.w3.org/1999/xlink" width="49px" height="48px"><path fill-rule="evenodd" fill="rgb(255, 255, 255)" d="M36.873,34.301 L30.873,34.301 L30.873,30.872 L36.873,30.872 C41.127,30.872 44.588,27.412 44.588,23.158 C44.588,19.117 41.427,15.740 37.390,15.474 L34.560,15.284 L34.215,12.467 C33.585,7.323 29.202,3.443 24.016,3.443 C18.830,3.443 14.447,7.323 13.817,12.467 L13.472,15.285 L10.642,15.474 C6.605,15.740 3.445,19.117 3.445,23.158 C3.445,27.412 6.905,30.872 11.159,30.872 L17.159,30.872 L17.159,34.301 L11.159,34.301 C5.005,34.301 0.016,29.312 0.016,23.158 C0.016,17.255 4.610,12.437 10.414,12.052 C11.243,5.272 17.012,0.015 24.016,0.015 C31.021,0.015 36.789,5.272 37.618,12.052 C43.422,12.437 48.016,17.255 48.016,23.158 C48.016,29.312 43.027,34.301 36.873,34.301 ZM22.302,41.452 L22.302,20.587 L25.730,20.587 L25.730,41.452 L30.518,36.664 L32.942,39.088 L24.016,48.015 L15.090,39.088 L17.514,36.664 L22.302,41.452 Z"/></svg>