<svg xmlns="http://www.w3.org/2000/svg" xmlns:xlink="http://www.w3.org/1999/xlink" width="45px" height="51px"><path fill-rule="evenodd" fill="rgb(255, 255, 255)" d="M22.567,41.014 C22.334,41.014 22.102,40.971 21.881,40.886 L11.657,36.949 C10.967,36.683 10.489,36.039 10.427,35.295 L10.048,30.633 C9.962,29.564 10.748,28.628 11.806,28.540 C12.878,28.449 13.792,29.248 13.880,30.315 L14.160,33.760 L22.585,37.004 L31.508,33.753 L31.863,25.435 L11.661,25.435 C10.646,25.435 9.806,24.639 9.743,23.617 L9.022,12.048 C8.988,11.513 9.176,10.988 9.539,10.597 C9.903,10.207 10.410,9.985 10.940,9.985 L34.816,9.985 C35.877,9.985 36.738,10.854 36.738,11.926 C36.738,12.997 35.877,13.866 34.816,13.866 L12.987,13.866 L13.465,21.554 L33.870,21.554 C34.394,21.554 34.897,21.770 35.258,22.153 C35.621,22.534 35.814,23.049 35.791,23.578 L35.294,35.220 C35.260,36.007 34.760,36.694 34.026,36.961 L23.219,40.900 C23.009,40.975 22.787,41.014 22.567,41.014 L22.567,41.014 ZM22.567,50.999 C22.330,50.999 22.095,50.955 21.871,50.868 L3.106,43.508 C2.399,43.231 1.919,42.558 1.883,41.793 L-0.000,2.118 C0.010,0.064 1.703,0.042 3.495,0.018 C8.506,-0.049 23.549,0.085 23.550,0.085 C23.506,0.085 37.126,-0.048 41.657,0.018 C43.146,0.040 45.000,0.067 45.000,2.025 L43.117,41.793 C43.081,42.557 42.604,43.228 41.899,43.507 L23.267,50.866 C23.042,50.955 22.804,50.999 22.567,50.999 L22.567,50.999 ZM5.662,40.348 L22.564,46.977 L39.337,40.351 L41.065,3.892 C40.364,3.885 39.384,3.880 38.011,3.880 C32.229,3.880 23.555,3.965 23.552,3.965 C23.516,3.965 13.921,3.880 7.524,3.880 C5.865,3.880 4.720,3.887 3.929,3.894 L5.662,40.348 Z"/></svg>