<svg xmlns="http://www.w3.org/2000/svg" xmlns:xlink="http://www.w3.org/1999/xlink" width="49px" height="49px"><path fill-rule="evenodd" fill="rgb(255, 255, 255)" d="M37.350,14.730 L31.296,20.784 C30.864,21.216 30.215,21.432 29.783,21.432 C29.350,21.432 28.702,21.216 28.269,20.784 L22.216,14.730 C21.351,13.865 21.351,12.567 22.216,11.702 L28.269,5.648 C28.702,5.216 29.134,5.000 29.783,5.000 C30.432,5.000 30.864,5.216 31.296,5.648 L37.350,11.702 C38.215,12.567 38.215,13.865 37.350,14.730 ZM29.783,7.162 L23.729,13.216 L29.783,19.270 L35.837,13.216 L29.783,7.162 ZM16.810,37.000 L8.162,37.000 C6.865,37.000 6.000,36.135 6.000,34.838 L6.000,26.189 C6.000,24.892 6.865,24.027 8.162,24.027 L16.810,24.027 C18.108,24.027 18.972,24.892 18.972,26.189 L18.972,34.838 C18.972,36.135 18.108,37.000 16.810,37.000 ZM16.810,26.189 L8.162,26.189 L8.162,34.838 L16.810,34.838 L16.810,26.189 ZM16.810,19.703 L8.162,19.703 C6.865,19.703 6.000,18.838 6.000,17.541 L6.000,8.892 C6.000,7.594 6.865,6.730 8.162,6.730 L16.810,6.730 C18.108,6.730 18.972,7.594 18.972,8.892 L18.972,17.541 C18.972,18.838 18.108,19.703 16.810,19.703 ZM16.810,8.892 L8.162,8.892 L8.162,17.541 L16.810,17.541 L16.810,8.892 ZM25.459,24.027 L34.107,24.027 C35.404,24.027 36.269,24.892 36.269,26.189 L36.269,34.838 C36.269,36.135 35.404,37.000 34.107,37.000 L25.459,37.000 C24.161,37.000 23.297,36.135 23.297,34.838 L23.297,26.189 C23.297,24.892 24.161,24.027 25.459,24.027 ZM25.459,34.838 L34.107,34.838 L34.107,26.189 L25.459,26.189 L25.459,34.838 Z"/></svg>