<svg xmlns="http://www.w3.org/2000/svg" xmlns:xlink="http://www.w3.org/1999/xlink" width="52px" height="46px"><path fill-rule="evenodd" fill="rgb(255, 255, 255)" d="M37.956,34.000 L9.043,34.000 C7.365,34.000 6.000,32.631 6.000,30.947 L6.000,14.158 L6.000,12.631 L6.000,8.052 C6.000,6.369 7.365,4.999 9.043,4.999 L37.956,4.999 C39.635,4.999 41.000,6.369 41.000,8.052 L41.000,30.947 C41.000,32.631 39.635,34.000 37.956,34.000 ZM7.974,31.794 L39.026,31.794 L39.026,14.158 L7.974,14.158 L7.974,31.794 ZM7.974,7.206 L7.974,12.631 L39.026,12.631 L39.026,7.206 L7.974,7.206 ZM17.413,11.105 L15.891,11.105 C15.473,11.105 15.130,10.762 15.130,10.342 C15.130,9.922 15.473,9.579 15.891,9.579 L17.413,9.579 C17.831,9.579 18.174,9.922 18.174,10.342 C18.174,10.762 17.831,11.105 17.413,11.105 ZM12.848,11.105 L11.326,11.105 C10.907,11.105 10.565,10.762 10.565,10.342 C10.565,9.922 10.907,9.579 11.326,9.579 L12.848,9.579 C13.266,9.579 13.609,9.922 13.609,10.342 C13.609,10.762 13.266,11.105 12.848,11.105 ZM20.765,22.934 C20.837,23.850 21.075,24.565 21.512,25.056 C21.950,25.533 22.554,25.791 23.319,25.791 C23.994,25.791 24.542,25.624 24.964,25.314 C25.293,25.056 25.568,24.637 25.821,24.088 L27.756,24.088 C27.537,24.966 27.119,25.720 26.458,26.306 C25.635,27.022 24.594,27.389 23.334,27.389 C21.945,27.389 20.832,26.950 20.028,26.087 C19.154,25.171 18.716,23.945 18.716,22.386 C18.716,20.974 19.116,19.805 19.957,18.851 C20.765,17.883 21.883,17.406 23.267,17.406 C24.803,17.406 25.987,17.921 26.791,18.980 C27.523,19.934 27.903,21.250 27.923,22.934 L20.765,22.934 ZM23.324,18.999 C22.592,18.999 22.026,19.199 21.588,19.638 C21.189,20.058 20.913,20.664 20.804,21.470 L25.897,21.470 C25.716,19.824 24.855,18.999 23.324,18.999 Z"/></svg>