<svg xmlns="http://www.w3.org/2000/svg" xmlns:xlink="http://www.w3.org/1999/xlink" width="40px" height="40px"><path fill-rule="evenodd" fill="rgb(221, 167, 89)" d="M20.000,-0.000 C31.046,-0.000 40.000,8.954 40.000,20.000 C40.000,31.045 31.046,40.000 20.000,40.000 C8.954,40.000 -0.000,31.045 -0.000,20.000 C-0.000,8.954 8.954,-0.000 20.000,-0.000 Z"/><path fill-rule="evenodd" fill="rgb(255, 255, 255)" d="M30.978,25.920 L30.979,25.921 L30.978,25.921 L30.976,26.744 L20.000,30.992 L20.000,31.000 L19.989,30.995 L19.979,31.000 L19.979,30.992 L9.003,26.744 L9.000,26.744 L9.000,13.245 L9.008,13.245 L9.003,13.243 L9.024,13.235 L9.021,13.235 L20.019,9.000 L31.000,13.248 L30.978,25.920 ZM10.473,25.360 L10.624,25.303 C10.708,25.271 10.798,25.255 10.885,25.255 C11.181,25.255 11.459,25.434 11.576,25.724 C11.636,25.882 11.627,26.044 11.581,26.195 L19.265,29.277 L19.265,23.587 L18.667,23.814 C18.583,23.846 18.493,23.861 18.406,23.861 C18.110,23.861 17.829,23.682 17.718,23.391 C17.573,23.012 17.763,22.588 18.144,22.444 C18.144,22.444 18.609,22.267 19.069,22.091 L19.265,22.017 L19.265,22.015 L19.265,17.927 L10.473,14.587 L10.473,25.360 ZM26.994,13.274 L26.270,12.993 L20.016,10.573 L13.691,13.006 L12.030,13.611 L19.262,16.366 L19.262,15.983 C19.262,15.578 19.593,15.250 20.000,15.250 C20.407,15.250 20.738,15.578 20.738,15.983 L20.738,16.350 L27.877,13.640 L26.981,13.279 L26.994,13.274 ZM20.714,17.930 L20.714,22.023 L21.819,22.444 C22.197,22.588 22.388,23.012 22.240,23.393 C22.129,23.685 21.848,23.864 21.552,23.864 C21.465,23.864 21.378,23.848 21.290,23.817 L20.714,23.597 L20.714,29.298 L28.303,26.239 L28.298,26.244 L28.415,26.197 L28.361,26.134 C28.332,26.003 28.340,25.860 28.393,25.724 C28.504,25.432 28.784,25.253 29.080,25.253 C29.168,25.253 29.255,25.269 29.342,25.300 C29.342,25.300 29.401,25.322 29.490,25.356 L29.490,14.595 L20.714,17.930 ZM26.235,25.637 C26.148,25.637 26.061,25.621 25.973,25.590 L24.138,24.893 C23.758,24.748 23.567,24.324 23.713,23.945 C23.824,23.654 24.104,23.475 24.400,23.475 C24.487,23.475 24.575,23.491 24.662,23.522 L26.497,24.219 C26.878,24.364 27.068,24.787 26.923,25.166 C26.812,25.458 26.531,25.637 26.235,25.637 ZM28.358,26.131 L28.361,26.134 L28.361,26.139 C28.358,26.137 28.358,26.134 28.358,26.131 ZM20.000,14.032 C19.593,14.032 19.262,13.703 19.262,13.298 L19.262,12.322 C19.262,11.917 19.593,11.588 20.000,11.588 C20.407,11.588 20.738,11.917 20.738,12.322 L20.738,13.298 C20.738,13.703 20.407,14.032 20.000,14.032 ZM15.825,24.893 L13.990,25.590 C13.905,25.621 13.815,25.637 13.728,25.637 C13.432,25.637 13.151,25.458 13.040,25.166 C12.895,24.790 13.085,24.367 13.463,24.222 L15.301,23.522 C15.388,23.491 15.476,23.475 15.563,23.475 C15.859,23.475 16.139,23.654 16.250,23.945 C16.396,24.324 16.206,24.748 15.825,24.893 Z"/></svg>