<svg xmlns="http://www.w3.org/2000/svg" xmlns:xlink="http://www.w3.org/1999/xlink" width="40px" height="40px"><path fill-rule="evenodd" fill="rgb(31, 176, 159)" d="M20.000,-0.000 C31.046,-0.000 40.000,8.954 40.000,20.000 C40.000,31.046 31.046,40.000 20.000,40.000 C8.954,40.000 -0.000,31.046 -0.000,20.000 C-0.000,8.954 8.954,-0.000 20.000,-0.000 Z"/><path fill-rule="evenodd" fill="rgb(255, 255, 255)" d="M16.887,24.118 C16.368,23.599 15.794,23.339 15.180,23.339 C13.390,23.339 11.655,25.596 10.043,30.042 C9.947,30.302 10.015,30.603 10.207,30.795 C10.289,30.877 10.398,30.945 10.507,30.972 L10.507,31.000 L10.712,31.000 C10.794,31.000 10.876,30.986 10.958,30.959 C15.002,29.481 17.242,27.908 17.598,26.294 C17.734,25.746 17.707,24.939 16.887,24.118 L16.887,24.118 ZM16.204,25.979 C16.150,26.239 15.890,26.800 14.783,27.552 C14.073,28.045 13.130,28.537 11.983,29.016 C12.516,27.744 13.062,26.718 13.609,25.993 C14.169,25.226 14.715,24.803 15.139,24.789 L15.166,24.789 C15.385,24.789 15.617,24.898 15.849,25.145 C16.163,25.432 16.272,25.705 16.204,25.979 L16.204,25.979 ZM29.839,10.000 C27.311,10.055 25.057,10.506 23.117,11.368 C21.423,12.120 19.975,13.174 18.800,14.501 C18.609,14.720 18.431,14.939 18.253,15.171 C17.352,15.253 16.450,15.609 15.549,16.252 C14.770,16.799 13.977,17.565 13.212,18.509 C11.983,20.041 11.204,21.560 11.108,21.724 C10.944,22.039 11.040,22.422 11.327,22.627 C11.600,22.832 12.010,22.805 12.256,22.559 C12.256,22.559 12.734,22.094 13.540,21.628 C14.169,21.273 15.152,20.835 16.354,20.725 C16.723,21.546 17.570,22.449 18.049,22.942 C18.527,23.421 19.442,24.269 20.262,24.638 C20.152,25.842 19.729,26.827 19.374,27.457 C18.909,28.277 18.445,28.743 18.445,28.743 C18.199,28.989 18.158,29.385 18.376,29.673 C18.513,29.864 18.732,29.974 18.964,29.974 C19.073,29.974 19.182,29.946 19.292,29.892 C19.565,29.755 21.013,28.989 22.502,27.785 C23.445,27.019 24.210,26.239 24.756,25.445 C25.399,24.542 25.754,23.626 25.836,22.737 C26.068,22.559 26.287,22.381 26.505,22.189 C27.830,21.013 28.882,19.563 29.634,17.866 C30.535,15.814 31.000,13.406 31.000,10.698 L31.000,10.000 L29.839,10.000 ZM16.573,19.043 C15.808,19.111 15.057,19.276 14.319,19.563 C15.139,18.468 16.218,17.305 17.434,16.717 C16.901,17.757 16.669,18.605 16.573,19.043 L16.573,19.043 ZM21.450,26.731 C21.737,25.993 21.915,25.240 21.969,24.474 C22.407,24.378 23.240,24.146 24.292,23.612 C23.718,24.830 22.543,25.924 21.450,26.731 L21.450,26.731 ZM25.658,21.040 L25.549,21.136 C23.459,22.983 21.314,23.407 21.027,23.407 C21.027,23.407 20.836,23.380 20.344,23.038 C19.961,22.764 19.510,22.381 19.073,21.943 C18.636,21.505 18.253,21.054 17.980,20.671 C17.652,20.192 17.625,19.987 17.611,19.987 C17.611,19.672 18.035,17.538 19.879,15.445 C22.052,12.969 25.399,11.601 29.538,11.450 C29.401,15.554 28.049,18.851 25.658,21.040 L25.658,21.040 ZM24.237,13.611 C22.707,13.611 21.464,14.857 21.464,16.389 C21.450,17.921 22.707,19.166 24.237,19.166 C25.768,19.166 27.011,17.921 27.011,16.389 C27.011,14.857 25.768,13.611 24.237,13.611 L24.237,13.611 ZM24.237,17.729 C23.500,17.729 22.899,17.128 22.899,16.389 C22.899,15.650 23.500,15.048 24.237,15.048 C24.975,15.048 25.576,15.650 25.576,16.389 C25.576,17.128 24.975,17.729 24.237,17.729 L24.237,17.729 Z"/></svg>